<svg width="40" height="39" viewBox="0 0 40 39" fill="none" xmlns="http://www.w3.org/2000/svg">
<path d="M8.75001 18.75C8.75001 18.4185 8.8817 18.1005 9.11613 17.8661C9.35055 17.6317 9.66849 17.5 10 17.5L26.9875 17.5L25.3625 15.8875C25.1271 15.6521 24.9949 15.3329 24.9949 15C24.9949 14.6671 25.1271 14.3479 25.3625 14.1125C25.5979 13.8771 25.9171 13.7449 26.25 13.7449C26.5829 13.7449 26.9021 13.8771 27.1375 14.1125L30.8875 17.8625C31.061 18.0383 31.1785 18.2615 31.2252 18.504C31.2719 18.7465 31.2457 18.9973 31.15 19.225C31.0562 19.4533 30.897 19.6487 30.6923 19.7866C30.4877 19.9245 30.2468 19.9988 30 20L10 20C9.66849 20 9.35055 19.8683 9.11613 19.6339C8.8817 19.3994 8.75001 19.0815 8.75001 18.75Z" fill="#9E9D9B"/>
<path d="M25 22.5C24.9991 22.3355 25.0306 22.1724 25.0928 22.0201C25.155 21.8678 25.2467 21.7293 25.3625 21.6125L29.1125 17.8625C29.3479 17.6271 29.6671 17.4949 30 17.4949C30.1648 17.4949 30.328 17.5273 30.4803 17.5904C30.6326 17.6535 30.771 17.7459 30.8875 17.8625C31.0041 17.979 31.0965 18.1174 31.1596 18.2697C31.2227 18.422 31.2551 18.5852 31.2551 18.75C31.2551 19.0829 31.1229 19.4021 30.8875 19.6375L27.1375 23.3875C27.0213 23.5046 26.8831 23.5976 26.7307 23.6611C26.5784 23.7246 26.415 23.7572 26.25 23.7572C26.085 23.7572 25.9216 23.7246 25.7693 23.6611C25.617 23.5976 25.4787 23.5046 25.3625 23.3875C25.2467 23.2707 25.155 23.1322 25.0928 22.9799C25.0306 22.8276 24.9991 22.6645 25 22.5Z" fill="#9E9D9B"/>
</svg>
