<svg width="24" height="24" viewBox="0 0 24 24" fill="none" xmlns="http://www.w3.org/2000/svg">
<path d="M15 12C15.0008 12.1316 14.9755 12.2621 14.9258 12.3839C14.876 12.5058 14.8027 12.6166 14.71 12.71L10.71 16.71C10.5217 16.8983 10.2663 17.0041 10 17.0041C9.7337 17.0041 9.47831 16.8983 9.29 16.71C9.1017 16.5217 8.99591 16.2663 8.99591 16C8.99591 15.7337 9.1017 15.4783 9.29 15.29L12.59 12L9.3 8.71002C9.13618 8.51872 9.05057 8.27264 9.06029 8.02097C9.07001 7.76929 9.17434 7.53055 9.35244 7.35246C9.53053 7.17436 9.76927 7.07003 10.0209 7.06031C10.2726 7.05059 10.5187 7.1362 10.71 7.30002L14.71 11.3C14.8947 11.4863 14.9989 11.7377 15 12Z" fill="#424241"/>
</svg>
