<svg width="25" height="24" viewBox="0 0 25 24" fill="none" xmlns="http://www.w3.org/2000/svg">
<path d="M18.5 7.05C18.5 6.78478 18.3946 6.53043 18.2071 6.34289C18.0196 6.15536 17.7652 6.05 17.5 6.05L9.5 6C9.23478 6 8.98043 6.10536 8.79289 6.29289C8.60536 6.48043 8.5 6.73478 8.5 7C8.5 7.26522 8.60536 7.51957 8.79289 7.70711C8.98043 7.89464 9.23478 8 9.5 8H15.06L6.79 16.29C6.69627 16.383 6.62188 16.4936 6.57111 16.6154C6.52034 16.7373 6.4942 16.868 6.4942 17C6.4942 17.132 6.52034 17.2627 6.57111 17.3846C6.62188 17.5064 6.69627 17.617 6.79 17.71C6.88296 17.8037 6.99356 17.8781 7.11542 17.9289C7.23728 17.9797 7.36799 18.0058 7.5 18.0058C7.63201 18.0058 7.76272 17.9797 7.88458 17.9289C8.00644 17.8781 8.11704 17.8037 8.21 17.71L16.5 9.42V15C16.5 15.2652 16.6054 15.5196 16.7929 15.7071C16.9804 15.8946 17.2348 16 17.5 16C17.7652 16 18.0196 15.8946 18.2071 15.7071C18.3946 15.5196 18.5 15.2652 18.5 15V7.05Z" fill="#FAF8F5"/>
</svg>
