<svg width="167" height="30" viewBox="0 0 167 30" fill="none" xmlns="http://www.w3.org/2000/svg">
<path d="M17.892 24.212H7.884L6.228 29H0.936L9.972 3.836H15.84L24.876 29H19.548L17.892 24.212ZM16.524 20.18L12.888 9.668L9.252 20.18H16.524ZM33.2935 12.152C33.9415 11.096 34.7815 10.268 35.8135 9.668C36.8695 9.068 38.0695 8.768 39.4135 8.768V14.06H38.0815C36.4975 14.06 35.2975 14.432 34.4815 15.176C33.6895 15.92 33.2935 17.216 33.2935 19.064V29H28.2535V9.056H33.2935V12.152ZM41.5122 19.028C41.5122 16.964 41.9322 15.164 42.7722 13.628C43.6122 12.068 44.7762 10.868 46.2642 10.028C47.7522 9.164 49.4562 8.732 51.3762 8.732C53.8482 8.732 55.8882 9.356 57.4962 10.604C59.1282 11.828 60.2202 13.556 60.7722 15.788H55.3362C55.0482 14.924 54.5562 14.252 53.8602 13.772C53.1882 13.268 52.3482 13.016 51.3402 13.016C49.9002 13.016 48.7602 13.544 47.9202 14.6C47.0802 15.632 46.6602 17.108 46.6602 19.028C46.6602 20.924 47.0802 22.4 47.9202 23.456C48.7602 24.488 49.9002 25.004 51.3402 25.004C53.3802 25.004 54.7122 24.092 55.3362 22.268H60.7722C60.2202 24.428 59.1282 26.144 57.4962 27.416C55.8642 28.688 53.8242 29.324 51.3762 29.324C49.4562 29.324 47.7522 28.904 46.2642 28.064C44.7762 27.2 43.6122 26 42.7722 24.464C41.9322 22.904 41.5122 21.092 41.5122 19.028ZM75.6965 8.768C77.2085 8.768 78.5525 9.104 79.7285 9.776C80.9045 10.424 81.8165 11.396 82.4645 12.692C83.1365 13.964 83.4725 15.5 83.4725 17.3V29H78.4325V17.984C78.4325 16.4 78.0365 15.188 77.2445 14.348C76.4525 13.484 75.3725 13.052 74.0045 13.052C72.6125 13.052 71.5085 13.484 70.6925 14.348C69.9005 15.188 69.5045 16.4 69.5045 17.984V29H64.4645V2.36H69.5045V11.54C70.1525 10.676 71.0165 10.004 72.0965 9.524C73.1765 9.02 74.3765 8.768 75.6965 8.768ZM90.8213 6.68C89.9333 6.68 89.1893 6.404 88.5893 5.852C88.0133 5.276 87.7253 4.568 87.7253 3.728C87.7253 2.888 88.0133 2.192 88.5893 1.64C89.1893 1.064 89.9333 0.775999 90.8213 0.775999C91.7093 0.775999 92.4413 1.064 93.0173 1.64C93.6173 2.192 93.9173 2.888 93.9173 3.728C93.9173 4.568 93.6173 5.276 93.0173 5.852C92.4413 6.404 91.7093 6.68 90.8213 6.68ZM93.3053 9.056V29H88.2653V9.056H93.3053ZM113.801 3.872V7.94H103.325V14.384H111.353V18.38H103.325V29H98.2848V3.872H113.801ZM122.415 2.36V29H117.375V2.36H122.415ZM145.934 18.596C145.934 19.316 145.886 19.964 145.79 20.54H131.21C131.33 21.98 131.834 23.108 132.722 23.924C133.61 24.74 134.702 25.148 135.998 25.148C137.87 25.148 139.202 24.344 139.994 22.736H145.43C144.854 24.656 143.75 26.24 142.118 27.488C140.486 28.712 138.482 29.324 136.106 29.324C134.186 29.324 132.458 28.904 130.922 28.064C129.41 27.2 128.222 25.988 127.358 24.428C126.518 22.868 126.098 21.068 126.098 19.028C126.098 16.964 126.518 15.152 127.358 13.592C128.198 12.032 129.374 10.832 130.886 9.992C132.398 9.152 134.138 8.732 136.106 8.732C138.002 8.732 139.694 9.14 141.182 9.956C142.694 10.772 143.858 11.936 144.674 13.448C145.514 14.936 145.934 16.652 145.934 18.596ZM140.714 17.156C140.69 15.86 140.222 14.828 139.31 14.06C138.398 13.268 137.282 12.872 135.962 12.872C134.714 12.872 133.658 13.256 132.794 14.024C131.954 14.768 131.438 15.812 131.246 17.156H140.714ZM160.629 29L156.525 22.808L152.889 29H147.489L154.005 18.992L147.417 9.056H153.105L157.173 15.212L160.845 9.056H166.245L159.693 18.992L166.317 29H160.629Z" fill="#424241"/>
</svg>
